<svg width="12" height="12" viewBox="0 0 12 12" fill="none" xmlns="http://www.w3.org/2000/svg">
<path d="M10.4349 8.85117L6.30285 3.15469C6.15285 2.94844 5.84582 2.94844 5.69699 3.15469L1.56378 8.85117C1.55361 8.86518 1.54752 8.88173 1.54618 8.899C1.54484 8.91626 1.54831 8.93355 1.55619 8.94896C1.56408 8.96438 1.57608 8.9773 1.59087 8.98631C1.60565 8.99532 1.62264 9.00006 1.63996 9H2.51886C2.57863 9 2.63488 8.9707 2.67003 8.92266L5.99933 4.33359L9.32863 8.92266C9.36378 8.9707 9.42003 9 9.4798 9H10.3587C10.4349 9 10.4794 8.91328 10.4349 8.85117Z" fill="#546575"/>
</svg>
