<svg width="25" height="18" viewBox="0 0 25 18" fill="none" xmlns="http://www.w3.org/2000/svg">
<g clip-path="url(#clip0_1609_7770)">
<path d="M10.624 4.625C11.0301 4.625 11.4196 4.78633 11.7068 5.07349C11.9939 5.36066 12.1553 5.75014 12.1553 6.15625C12.1553 6.56236 11.9939 6.95184 11.7068 7.23901C11.4196 7.52617 11.0301 7.6875 10.624 7.6875H9.09277V6.15625C9.09277 5.75014 9.2541 5.36066 9.54127 5.07349C9.82843 4.78633 10.2179 4.625 10.624 4.625Z" stroke="#23394D" stroke-width="0.875" stroke-linecap="round" stroke-linejoin="round"/>
<path d="M6.46777 7.6875H4.93652C4.53041 7.6875 4.14093 7.52617 3.85377 7.23901C3.5666 6.95184 3.40527 6.56236 3.40527 6.15625C3.40527 5.75014 3.5666 5.36066 3.85377 5.07349C4.14093 4.78633 4.53041 4.625 4.93652 4.625C5.34264 4.625 5.73212 4.78633 6.01928 5.07349C6.30645 5.36066 6.46777 5.75014 6.46777 6.15625V7.6875Z" stroke="#23394D" stroke-width="0.875" stroke-linecap="round" stroke-linejoin="round"/>
<path d="M9.09277 10.3125H10.624C11.0301 10.3125 11.4196 10.4738 11.7068 10.761C11.9939 11.0482 12.1553 11.4376 12.1553 11.8438C12.1553 12.2499 11.9939 12.6393 11.7068 12.9265C11.4196 13.2137 11.0301 13.375 10.624 13.375C10.2179 13.375 9.82843 13.2137 9.54127 12.9265C9.2541 12.6393 9.09277 12.2499 9.09277 11.8438V10.3125Z" stroke="#23394D" stroke-width="0.875" stroke-linecap="round" stroke-linejoin="round"/>
<path d="M4.93652 13.375C4.53041 13.375 4.14093 13.2137 3.85377 12.9265C3.5666 12.6393 3.40527 12.2499 3.40527 11.8438C3.40527 11.4376 3.5666 11.0482 3.85377 10.761C4.14093 10.4738 4.53041 10.3125 4.93652 10.3125H6.46777V11.8438C6.46777 12.2499 6.30645 12.6393 6.01928 12.9265C5.73212 13.2137 5.34264 13.375 4.93652 13.375Z" stroke="#23394D" stroke-width="0.875" stroke-linecap="round" stroke-linejoin="round"/>
<path d="M9.09277 7.6875H6.46777V10.3125H9.09277V7.6875Z" stroke="#23394D" stroke-width="0.875" stroke-linecap="round" stroke-linejoin="round"/>
</g>
<path d="M18.0068 13.5V5.5H19.2139V9.32031H19.3115L22.667 5.5H24.1865L20.96 9.10156L24.1982 13.5H22.7451L20.1592 9.92578L19.2139 11.0117V13.5H18.0068Z" fill="#23394D"/>
<defs>
<clipPath id="clip0_1609_7770">
<rect width="14" height="14" fill="white" transform="translate(0.780273 2)"/>
</clipPath>
</defs>
</svg>
