<svg width="20" height="26" viewBox="0 0 20 26" fill="none" xmlns="http://www.w3.org/2000/svg">
<path d="M3.8298 25.3128C1.71543 25.3128 0 23.5974 0 21.483C0 19.1957 1.86171 17.334 4.16225 17.334H7.6596V21.483C7.6596 23.5974 5.94417 25.3128 3.8298 25.3128Z" fill="#EB6A44"/>
<path d="M19.9992 9.06528C19.9992 12.7621 17.8982 15.9404 13.7758 16.9776C12.8583 17.217 11.8343 17.3367 10.7173 17.3367H7.68536V9.46422H7.67206C7.6632 9.46422 7.65876 9.46422 7.65876 9.46422C7.41054 9.43763 7.15788 9.42433 6.90079 9.42433C3.31035 9.42433 0.37151 12.1637 0.0390625 15.6611V4.21149C0.0390625 2.26997 1.60822 0.6875 3.56301 0.6875H10.7173C16.8609 0.6875 19.9992 4.1317 19.9992 9.06528Z" fill="white"/>
</svg>
