<svg width="320" height="187" viewBox="0 0 320 187" fill="none" xmlns="http://www.w3.org/2000/svg">
<rect width="320" height="187" rx="2" fill="white"/>
<path d="M160 133C210.81 133 252 124.057 252 113.024C252 101.992 210.81 93.0488 160 93.0488C109.19 93.0488 68 101.992 68 113.024C68 124.057 109.19 133 160 133Z" fill="#F5FAFF"/>
<path d="M226.125 55.2662L196.955 22.4434C195.555 20.2061 193.511 18.8535 191.358 18.8535H128.642C126.489 18.8535 124.445 20.2061 123.045 22.4406L93.875 55.2691V81.634H226.125V55.2662Z" stroke="#71B0E9"/>
<path d="M187.637 64.3152C187.637 59.7351 190.495 55.954 194.04 55.9512H226.125V107.708C226.125 113.766 222.33 118.732 217.644 118.732H102.356C97.67 118.732 93.875 113.763 93.875 107.708V55.9512H125.96C129.505 55.9512 132.363 59.7266 132.363 64.3067V64.3695C132.363 68.9496 135.252 72.6479 138.794 72.6479H181.206C184.748 72.6479 187.637 68.9153 187.637 64.3352V64.3152Z" fill="#B8D7F4" stroke="#71B0E9"/>
<path d="M134.604 160V150.136H135.801L141.153 157.812H141.263V150.136H142.479V160H141.283L135.931 152.351H135.821V160H134.604ZM147.873 160.13C145.774 160.13 144.476 158.681 144.476 156.322V156.309C144.476 153.943 145.774 152.501 147.873 152.501C149.972 152.501 151.271 153.943 151.271 156.309V156.322C151.271 158.681 149.972 160.13 147.873 160.13ZM147.873 159.077C149.268 159.077 150.054 158.059 150.054 156.322V156.309C150.054 154.565 149.268 153.554 147.873 153.554C146.479 153.554 145.692 154.565 145.692 156.309V156.322C145.692 158.059 146.479 159.077 147.873 159.077ZM157.204 160V150.136H160.588C163.514 150.136 165.243 151.961 165.243 155.058V155.071C165.243 158.175 163.521 160 160.588 160H157.204ZM158.435 158.893H160.506C162.707 158.893 163.985 157.484 163.985 155.085V155.071C163.985 152.665 162.693 151.243 160.506 151.243H158.435V158.893ZM169.249 160.13C167.848 160.13 166.788 159.282 166.788 157.942V157.929C166.788 156.616 167.759 155.857 169.475 155.755L171.587 155.625V154.955C171.587 154.046 171.033 153.554 169.933 153.554C169.051 153.554 168.47 153.882 168.278 154.456L168.271 154.477H167.082L167.089 154.436C167.28 153.28 168.401 152.501 169.974 152.501C171.771 152.501 172.776 153.424 172.776 154.955V160H171.587V158.913H171.478C171.013 159.699 170.24 160.13 169.249 160.13ZM168.005 157.915C168.005 158.66 168.641 159.098 169.495 159.098C170.705 159.098 171.587 158.305 171.587 157.252V156.582L169.618 156.705C168.497 156.773 168.005 157.17 168.005 157.901V157.915ZM177.568 160.055C176.051 160.055 175.415 159.494 175.415 158.086V153.615H174.253V152.631H175.415V150.724H176.646V152.631H178.259V153.615H176.646V157.785C176.646 158.653 176.946 159.002 177.712 159.002C177.924 159.002 178.04 158.995 178.259 158.975V159.986C178.026 160.027 177.801 160.055 177.568 160.055ZM182.06 160.13C180.658 160.13 179.599 159.282 179.599 157.942V157.929C179.599 156.616 180.569 155.857 182.285 155.755L184.397 155.625V154.955C184.397 154.046 183.844 153.554 182.743 153.554C181.861 153.554 181.28 153.882 181.089 154.456L181.082 154.477H179.893L179.899 154.436C180.091 153.28 181.212 152.501 182.784 152.501C184.582 152.501 185.587 153.424 185.587 154.955V160H184.397V158.913H184.288C183.823 159.699 183.051 160.13 182.06 160.13ZM180.815 157.915C180.815 158.66 181.451 159.098 182.306 159.098C183.516 159.098 184.397 158.305 184.397 157.252V156.582L182.429 156.705C181.308 156.773 180.815 157.17 180.815 157.901V157.915Z" fill="#23394D"/>
</svg>
