<svg width="35" height="66" viewBox="0 0 35 66" fill="none" xmlns="http://www.w3.org/2000/svg">
<g filter="url(#filter0_d_1630_14860)">
<path d="M6.5 55.2779L6.5 6.72214L22.6305 12.7862C23.7552 13.209 24.5 14.2848 24.5 15.4863L24.5 46.5137C24.5 47.7152 23.7552 48.791 22.6305 49.2138L6.5 55.2779Z" fill="white" stroke="#E7E9EB"/>
<path fill-rule="evenodd" clip-rule="evenodd" d="M13.0622 34.8588C12.9082 34.6706 12.9082 34.3654 13.0622 34.1771L15.9385 30.6617L13.0623 27.1463C12.9082 26.9581 12.9082 26.6529 13.0623 26.4646C13.2163 26.2764 13.466 26.2764 13.62 26.4646L16.7751 30.3209C16.9291 30.5091 16.9291 30.8143 16.7751 31.0026L13.62 34.8588C13.466 35.0471 13.2163 35.0471 13.0622 34.8588Z" fill="#082E6E" stroke="#082E6E" stroke-width="0.232664" stroke-linecap="round" stroke-linejoin="round"/>
</g>
<defs>
<filter id="filter0_d_1630_14860" x="0" y="-4" width="43" height="76" filterUnits="userSpaceOnUse" color-interpolation-filters="sRGB">
<feFlood flood-opacity="0" result="BackgroundImageFix"/>
<feColorMatrix in="SourceAlpha" type="matrix" values="0 0 0 0 0 0 0 0 0 0 0 0 0 0 0 0 0 0 127 0" result="hardAlpha"/>
<feOffset dx="2" dy="2"/>
<feGaussianBlur stdDeviation="4"/>
<feComposite in2="hardAlpha" operator="out"/>
<feColorMatrix type="matrix" values="0 0 0 0 0 0 0 0 0 0 0 0 0 0 0 0 0 0 0.1 0"/>
<feBlend mode="normal" in2="BackgroundImageFix" result="effect1_dropShadow_1630_14860"/>
<feBlend mode="normal" in="SourceGraphic" in2="effect1_dropShadow_1630_14860" result="shape"/>
</filter>
</defs>
</svg>
