<svg width="35" height="66" viewBox="0 0 35 66" fill="none" xmlns="http://www.w3.org/2000/svg">
<g filter="url(#filter0_d_1630_14860)">
<path d="M6.5 55.2779L6.5 6.72214L22.6305 12.7862C23.7552 13.209 24.5 14.2848 24.5 15.4863L24.5 46.5137C24.5 47.7152 23.7552 48.791 22.6305 49.2138L6.5 55.2779Z" fill="white" stroke="#E7E9EB"/>
<path fill-rule="evenodd" clip-rule="evenodd" d="M16.7756 34.8588C16.9297 34.6706 16.9297 34.3654 16.7756 34.1771L13.8994 30.6617L16.7756 27.1463C16.9297 26.9581 16.9297 26.6529 16.7756 26.4646C16.6216 26.2764 16.3719 26.2764 16.2179 26.4646L13.0628 30.3209C12.9088 30.5091 12.9088 30.8143 13.0628 31.0026L16.2179 34.8588C16.3719 35.0471 16.6216 35.0471 16.7756 34.8588Z" fill="#082E6E" stroke="#082E6E" stroke-width="0.232664" stroke-linecap="round" stroke-linejoin="round"/>
</g>
<defs>
<filter id="filter0_d_1630_14860" x="0" y="-4" width="43" height="76" filterUnits="userSpaceOnUse" color-interpolation-filters="sRGB">
<feFlood flood-opacity="0" result="BackgroundImageFix"/>
<feColorMatrix in="SourceAlpha" type="matrix" values="0 0 0 0 0 0 0 0 0 0 0 0 0 0 0 0 0 0 127 0" result="hardAlpha"/>
<feOffset dx="2" dy="2"/>
<feGaussianBlur stdDeviation="4"/>
<feComposite in2="hardAlpha" operator="out"/>
<feColorMatrix type="matrix" values="0 0 0 0 0 0 0 0 0 0 0 0 0 0 0 0 0 0 0.1 0"/>
<feBlend mode="normal" in2="BackgroundImageFix" result="effect1_dropShadow_1630_14860"/>
<feBlend mode="normal" in="SourceGraphic" in2="effect1_dropShadow_1630_14860" result="shape"/>
</filter>
</defs>
</svg>
