<svg width="20" height="20" viewBox="0 0 20 20" fill="none" xmlns="http://www.w3.org/2000/svg">
<path d="M18.0578 12.8535H19.1738V13.8015H18.3478C18.32 13.4684 18.2211 13.1452 18.0578 12.8535Z" fill="#546575"/>
<path d="M14 12.8535C13.8344 13.1445 13.7341 13.4679 13.706 13.8015H6.964C6.93601 13.471 6.83709 13.1504 6.674 12.8615H14V12.8535Z" fill="#546575"/>
<path d="M2.32231 13.8033H0.824306V12.8633H2.6123C2.44921 13.1521 2.3503 13.4727 2.32231 13.8033Z" fill="#546575"/>
<path d="M16.0258 11.6616C15.6957 11.6617 15.3693 11.7322 15.0686 11.8684C14.7679 12.0047 14.4997 12.2035 14.2818 12.4516H8.02183V10.8516H19.1738V12.4516H17.7738C17.5556 12.203 17.2867 12.0039 16.9852 11.8676C16.6838 11.7314 16.3567 11.6611 16.0258 11.6616Z" fill="#546575"/>
<path d="M7.62207 6.15918V12.4552H6.38807C6.17015 12.2069 5.90176 12.008 5.60084 11.8718C5.29992 11.7355 4.9734 11.6651 4.64307 11.6651C4.31274 11.6651 3.98622 11.7355 3.6853 11.8718C3.38438 12.008 3.116 12.2069 2.89807 12.4552H0.824071V9.37118L3.12607 6.15918H7.62207ZM5.98207 9.97718V7.29918H3.58207L1.98207 9.97718H5.98207Z" fill="#546575"/>
<path d="M8.02194 5.95641V4.81641H17.8359V10.4444H8.02194V5.95641Z" fill="#546575"/>
<path d="M14.096 14.0014C14.0956 13.6191 14.2086 13.2453 14.4207 12.9273C14.6329 12.6092 14.9346 12.3613 15.2877 12.2148C15.6408 12.0684 16.0294 12.0299 16.4044 12.1044C16.7793 12.1789 17.1238 12.3629 17.3941 12.6333C17.6644 12.9036 17.8485 13.248 17.9229 13.623C17.9974 13.9979 17.959 14.3865 17.8125 14.7397C17.666 15.0928 17.4181 15.3945 17.1001 15.6066C16.7821 15.8188 16.4082 15.9318 16.026 15.9314C15.5143 15.9309 15.0237 15.7273 14.6618 15.3655C14.3 15.0037 14.0965 14.5131 14.096 14.0014ZM16.026 13.0014C15.8282 13.0014 15.6348 13.06 15.4704 13.1699C15.3059 13.2798 15.1778 13.436 15.1021 13.6187C15.0264 13.8014 15.0066 14.0025 15.0452 14.1965C15.0838 14.3905 15.179 14.5686 15.3189 14.7085C15.4587 14.8483 15.6369 14.9436 15.8309 14.9822C16.0249 15.0208 16.2259 15.001 16.4086 14.9253C16.5914 14.8496 16.7475 14.7214 16.8574 14.557C16.9673 14.3925 17.026 14.1992 17.026 14.0014C17.0281 13.8687 17.0038 13.737 16.9545 13.6138C16.9052 13.4906 16.8319 13.3785 16.7388 13.2839C16.6457 13.1893 16.5348 13.1143 16.4124 13.063C16.29 13.0118 16.1586 12.9854 16.026 12.9854V13.0014Z" fill="#546575"/>
<path d="M2.71217 14.0014C2.71178 13.6191 2.8248 13.2453 3.03694 12.9273C3.24908 12.6092 3.55079 12.3613 3.9039 12.2148C4.25701 12.0684 4.64564 12.0299 5.0206 12.1044C5.39555 12.1789 5.73998 12.3629 6.0103 12.6333C6.28062 12.9036 6.46466 13.248 6.53915 13.623C6.61363 13.9979 6.5752 14.3865 6.42872 14.7397C6.28225 15.0928 6.03431 15.3945 5.71628 15.6066C5.39826 15.8188 5.02445 15.9318 4.64217 15.9314C4.13047 15.9309 3.63987 15.7273 3.27804 15.3655C2.91621 15.0037 2.7127 14.5131 2.71217 14.0014ZM4.64217 13.0014C4.44439 13.0014 4.25105 13.06 4.0866 13.1699C3.92215 13.2798 3.79398 13.436 3.71829 13.6187C3.6426 13.8014 3.6228 14.0025 3.66139 14.1965C3.69997 14.3905 3.79521 14.5686 3.93507 14.7085C4.07492 14.8483 4.2531 14.9436 4.44708 14.9822C4.64106 15.0208 4.84213 15.001 5.02486 14.9253C5.20758 14.8496 5.36376 14.7214 5.47364 14.557C5.58352 14.3925 5.64217 14.1992 5.64217 14.0014C5.64429 13.8687 5.62 13.737 5.57069 13.6138C5.52139 13.4906 5.44807 13.3785 5.355 13.2839C5.26193 13.1893 5.15097 13.1143 5.02859 13.063C4.90621 13.0118 4.77485 12.9854 4.64217 12.9854V13.0014Z" fill="#546575"/>
</svg>
