<svg width="16" height="16" viewBox="0 0 16 16" fill="none" xmlns="http://www.w3.org/2000/svg">
<g id="24_heroicons-solid/cog-6-tooth">
<path id="Subtract" fill-rule="evenodd" clip-rule="evenodd" d="M7.386 1.5C6.77495 1.5 6.25346 1.94177 6.153 2.5445L6.03389 3.25915C6.02046 3.33976 5.95768 3.4332 5.83614 3.49164C5.60677 3.60195 5.38718 3.7292 5.179 3.87174C5.06801 3.94773 4.95579 3.95547 4.87919 3.92677L4.19974 3.67222C3.62753 3.45785 2.9842 3.68859 2.67868 4.21777L2.06402 5.28239C1.7585 5.81157 1.88033 6.48408 2.35209 6.87244L2.91244 7.33374C2.97552 7.38567 3.02493 7.48655 3.01486 7.62048C3.00544 7.74584 3.00065 7.87241 3.00065 8C3.00065 8.12764 3.00544 8.25425 3.01487 8.37966C3.02494 8.5136 2.97554 8.61448 2.91245 8.66641L2.35209 9.12772C1.88033 9.51609 1.7585 10.1886 2.06402 10.7178L2.67868 11.7824C2.9842 12.3116 3.62753 12.5423 4.19974 12.3279L4.87934 12.0733C4.95594 12.0446 5.06815 12.0524 5.17914 12.1284C5.38728 12.2709 5.60682 12.3981 5.83614 12.5084C5.95768 12.5668 6.02046 12.6602 6.0339 12.7408L6.153 13.4555C6.25346 14.0582 6.77495 14.5 7.386 14.5H8.61531C9.22635 14.5 9.74784 14.0582 9.8483 13.4555L9.96741 12.7408C9.98084 12.6602 10.0436 12.5668 10.1652 12.5084C10.3945 12.3981 10.6141 12.2708 10.8223 12.1283C10.9333 12.0523 11.0455 12.0445 11.1221 12.0732L11.8016 12.3278C12.3738 12.5421 13.0171 12.3114 13.3226 11.7822L13.9373 10.7176C14.2428 10.1884 14.121 9.51592 13.6492 9.12756L13.0889 8.66626C13.0258 8.61433 12.9764 8.51345 12.9864 8.37952C12.9959 8.25416 13.0007 8.12759 13.0007 8C13.0007 7.87236 12.9959 7.74575 12.9864 7.62034C12.9764 7.4864 13.0258 7.38552 13.0888 7.33359L13.6492 6.87228C14.121 6.48391 14.2428 5.81141 13.9373 5.28223L13.3226 4.21761C13.0171 3.68843 12.3738 3.45769 11.8016 3.67206L11.122 3.92666C11.0454 3.95536 10.9332 3.94763 10.8222 3.87164C10.614 3.72914 10.3945 3.60192 10.1652 3.49164C10.0436 3.4332 9.98084 3.33976 9.96741 3.25915L9.8483 2.5445C9.74784 1.94177 9.22635 1.5 8.6153 1.5H7.386ZM8.00073 10.5C9.38144 10.5 10.5007 9.38071 10.5007 8C10.5007 6.61929 9.38144 5.5 8.00073 5.5C6.62002 5.5 5.50073 6.61929 5.50073 8C5.50073 9.38071 6.62002 10.5 8.00073 10.5Z" fill="white" fill-opacity="0.9"/>
</g>
</svg>
