<svg width="16" height="16" viewBox="0 0 16 16" fill="none" xmlns="http://www.w3.org/2000/svg">
<g id="6542033_deliver_delivery_scale_weight_icon">
<path id="Vector" d="M2.99388 12.073C2.11178 10.9976 1.60001 9.66638 1.53457 8.277V8.25391C1.53457 8.08458 1.53457 7.9091 1.53457 7.72745C1.53675 7.69825 1.53675 7.66892 1.53457 7.63971C1.53457 7.47808 1.53457 7.32106 1.58076 7.1779C1.58076 7.13172 1.58076 7.08554 1.58076 7.03474C1.60385 6.89158 1.62694 6.75304 1.65926 6.60988L1.70082 6.42978C1.73315 6.30047 1.7701 6.17117 1.80704 6.04186L1.88093 5.83405C1.92249 5.71398 1.96867 5.59853 2.01485 5.48308L2.12107 5.25218C2.17187 5.14596 2.21805 5.03974 2.27808 4.93815C2.33812 4.83655 2.37044 4.78113 2.41662 4.70263C2.4628 4.62412 2.53207 4.50405 2.59211 4.41169L2.76298 4.18079C2.82763 4.08843 2.8969 3.99606 2.97079 3.9037C3.01697 3.84829 3.06777 3.79749 3.11857 3.74207C3.16937 3.68665 3.29405 3.53888 3.39103 3.4419C3.5459 3.27939 3.7093 3.12523 3.88055 2.98009C4.04218 2.85079 4.20381 2.73072 4.37468 2.61988L4.48551 2.55061C4.62405 2.46287 4.7626 2.37975 4.90576 2.30586C4.96117 2.27353 5.02121 2.24582 5.08124 2.21811C5.14128 2.1904 5.326 2.09804 5.4553 2.04725L5.68159 1.9595C5.79242 1.91794 5.90326 1.87638 6.01871 1.84405C6.10962 1.81302 6.20211 1.78681 6.29579 1.76554C6.39431 1.73784 6.49129 1.71475 6.58673 1.69627C6.69294 1.69627 6.80378 1.65009 6.91461 1.63624L7.15475 1.59929L7.59346 1.53464H7.76895C7.92135 1.53464 8.06912 1.53464 8.23076 1.53464H8.33697C8.50938 1.53464 8.68025 1.5485 8.84958 1.5762H8.87728C10.0621 1.73042 11.1811 2.20997 12.1099 2.96162H12.1515C12.2394 3.0233 12.346 3.05243 12.453 3.04401C12.5601 3.03558 12.6608 2.99012 12.738 2.91544C12.8226 2.82911 12.87 2.71305 12.87 2.59218C12.87 2.4713 12.8226 2.35524 12.738 2.26891H12.7149C12.6364 2.19964 12.5533 2.14422 12.4701 2.08419C12.387 2.02415 12.2485 1.91332 12.1376 1.83481L11.8698 1.67318C11.7543 1.60391 11.6435 1.53464 11.5234 1.46999C11.4034 1.40534 11.3387 1.37763 11.2463 1.33145C11.154 1.28527 11.0108 1.216 10.8861 1.1652L10.5767 1.07284L10.198 0.938912L9.91635 0.860405C9.78704 0.828079 9.65312 0.791134 9.51919 0.763426L9.24211 0.712627C9.10819 0.689537 8.96964 0.671065 8.8311 0.657211C8.69256 0.643356 8.651 0.657211 8.55864 0.629502C8.46628 0.601794 8.27694 0.629502 8.13378 0.629502C8.0461 0.624885 7.95823 0.624885 7.87055 0.629502C7.72739 0.629502 7.57961 0.629502 7.43183 0.629502H7.18246C7.03468 0.629502 6.8869 0.666447 6.72065 0.694155L6.48513 0.735718L6.02333 0.846551L5.81089 0.906586L5.34909 1.06822L5.15513 1.14211C4.9935 1.21138 4.83649 1.28527 4.69333 1.36377L4.53169 1.44228C4.36083 1.53464 4.19458 1.63162 4.03294 1.73784L3.91749 1.80711C3.72353 1.93641 3.53881 2.07034 3.35409 2.21811H3.331C3.13753 2.37601 2.95255 2.54404 2.77683 2.72148C2.67062 2.82308 2.58287 2.93391 2.48589 3.04013L2.28732 3.25718C2.20881 3.35415 2.13954 3.45575 2.06565 3.55273C1.99176 3.64971 1.92249 3.74207 1.85784 3.83905C1.79319 3.93603 1.73777 4.03763 1.67312 4.13922C1.60846 4.24082 1.54843 4.34242 1.49301 4.44863C1.4376 4.55485 1.39141 4.65645 1.34062 4.75804C1.28982 4.85964 1.2344 4.97509 1.18822 5.08593C1.14204 5.19676 1.10971 5.29374 1.07277 5.39995C1.03582 5.50617 0.989644 5.62624 0.9527 5.74169C0.915755 5.85714 0.892665 5.95874 0.860339 6.06495L0.777214 6.41131C0.777214 6.52214 0.735651 6.63297 0.717179 6.74381C0.698707 6.85464 0.680234 6.97471 0.66638 7.09478L0.638672 7.4319C0.638672 7.54735 0.638672 7.6628 0.638672 7.77825V8.11999C0.638672 8.23544 0.638672 8.35089 0.638672 8.46634C0.638672 8.58179 0.638672 8.69724 0.670998 8.8127C0.703325 8.92815 0.698707 9.03898 0.717179 9.14981C0.735651 9.26065 0.758741 9.38072 0.781832 9.49155C0.804922 9.60238 0.83263 9.71322 0.864957 9.82405C0.897283 9.93488 0.920373 10.0503 0.957318 10.1658C0.994262 10.2812 1.03121 10.3782 1.06815 10.4844C1.1051 10.5906 1.15128 10.7107 1.19746 10.8216L1.34062 11.131C1.39141 11.2372 1.44221 11.348 1.49763 11.4542C1.55305 11.5604 1.6177 11.6574 1.67773 11.759C1.73777 11.8606 1.7978 11.9622 1.86707 12.0592C1.93635 12.1562 2.01485 12.2624 2.08874 12.364C2.16263 12.4656 2.22267 12.5487 2.29655 12.6364V12.6595C2.38267 12.7428 2.49775 12.7893 2.61751 12.7893C2.73727 12.7893 2.85235 12.7428 2.93846 12.6595C3.01128 12.5821 3.05518 12.482 3.06275 12.376C3.07033 12.27 3.04111 12.1646 2.98003 12.0777C2.98003 12.0777 3.00773 12.0869 2.99388 12.073Z" fill="white"/>
<path id="Vector_2" d="M15.3883 7.82396C15.3883 7.70851 15.3883 7.59305 15.3883 7.4776C15.3883 7.36215 15.3883 7.2467 15.356 7.13125C15.3236 7.0158 15.3282 6.90958 15.3098 6.79413C15.2913 6.67868 15.2682 6.56323 15.2451 6.45239C15.222 6.34156 15.1943 6.23073 15.162 6.11989C15.1297 6.00906 15.1066 5.89361 15.0696 5.77816C15.0327 5.66271 14.9957 5.56573 14.9588 5.45951C14.9219 5.3533 14.8757 5.23323 14.8295 5.12239L14.6863 4.81298C14.6355 4.70677 14.5847 4.59593 14.5293 4.48972C14.4739 4.3835 14.4093 4.28653 14.3492 4.18955C14.2892 4.09257 14.2291 3.98173 14.1599 3.88475C14.0906 3.78778 14.0167 3.68156 13.9382 3.57996C13.8597 3.47837 13.8043 3.39524 13.7304 3.3075C13.6443 3.22426 13.5292 3.17773 13.4094 3.17773C13.2897 3.17773 13.1746 3.22426 13.0885 3.3075C13.0157 3.3849 12.9718 3.48504 12.9642 3.59104C12.9566 3.69704 12.9858 3.80241 13.0469 3.88937C13.0469 3.88937 13.0469 3.91708 13.07 3.93093C13.927 5.01207 14.4157 6.339 14.4647 7.71774V7.74083C14.4647 7.91632 14.4647 8.0918 14.4647 8.26729C14.4625 8.2965 14.4625 8.32583 14.4647 8.35503C14.4647 8.51666 14.4416 8.67368 14.4185 8.81684C14.4185 8.86302 14.4185 8.91382 14.4185 8.96C14.3954 9.10316 14.3723 9.2417 14.34 9.38486L14.2984 9.56496C14.2661 9.69427 14.2291 9.82357 14.1922 9.95288C14.1553 10.0822 14.1414 10.0914 14.1183 10.1653C14.0952 10.2392 14.0306 10.3962 13.9844 10.5117C13.9382 10.6271 13.9151 10.6641 13.8782 10.7426C13.8412 10.8211 13.7812 10.955 13.7212 11.0566C13.6611 11.1582 13.6288 11.2182 13.5826 11.2967C13.5364 11.3752 13.4672 11.4907 13.4071 11.5831L13.2363 11.814C13.1716 11.9063 13.1023 11.9987 13.0285 12.091L12.8807 12.2573C12.7929 12.3589 12.7052 12.4605 12.6082 12.5528C12.4533 12.7154 12.2899 12.8695 12.1187 13.0147C11.9625 13.1439 11.7991 13.2642 11.6292 13.3749L11.5183 13.4441C11.3798 13.5319 11.2413 13.615 11.0981 13.6889L10.9226 13.7766C10.8025 13.8367 10.6779 13.8967 10.5486 13.9521L10.3223 14.0352C10.2114 14.0768 10.1006 14.1184 9.98515 14.1507C9.89424 14.1817 9.80175 14.2079 9.70807 14.2292L9.41713 14.3031L9.08925 14.3631L8.84911 14.3955L8.46119 14.4324H8.23029C8.0779 14.4324 7.93012 14.4324 7.76849 14.4324H7.66227C7.4914 14.4324 7.32054 14.4324 7.14967 14.3908H7.12196C5.94519 14.2325 4.83474 13.7532 3.91241 13.0054C3.89967 12.9946 3.88572 12.9853 3.87085 12.9777C3.78296 12.916 3.67633 12.8869 3.5693 12.8953C3.46226 12.9037 3.3615 12.9492 3.28435 13.0239C3.19974 13.1102 3.15234 13.2263 3.15234 13.3472C3.15234 13.468 3.19974 13.5841 3.28435 13.6704C3.36286 13.7397 3.44599 13.7951 3.52449 13.8551C3.603 13.9152 3.74616 14.026 3.86161 14.1045L4.12946 14.2661C4.24491 14.3354 4.35574 14.4093 4.47581 14.4693C4.59588 14.5294 4.66054 14.5617 4.7529 14.6079C4.84526 14.6541 4.98842 14.7233 5.1131 14.7741L5.39481 14.8803L5.77349 15.0143L6.05519 15.0928C6.18449 15.1251 6.31842 15.162 6.45234 15.1898L6.72942 15.2406L7.14043 15.3006H7.4129C7.55144 15.3006 7.6946 15.3006 7.83776 15.3006H8.10099C8.24415 15.3006 8.39192 15.3006 8.5397 15.3006H8.78446C8.93686 15.3006 9.08925 15.2636 9.24626 15.2359L9.47717 15.1944C9.63418 15.162 9.78658 15.1251 9.93897 15.0835L10.1514 15.0235C10.3084 14.9773 10.4654 14.9173 10.6132 14.8619L10.8072 14.788C10.9688 14.7233 11.1258 14.6448 11.269 14.5663L11.4306 14.4878C11.602 14.3982 11.7685 14.2996 11.9294 14.1923C11.9663 14.1692 12.0079 14.1507 12.0448 14.123C12.2388 13.9937 12.4281 13.8598 12.6082 13.712H12.6313C12.8248 13.5541 13.0098 13.3861 13.1855 13.2086C13.2917 13.107 13.384 12.9962 13.481 12.8853C13.578 12.7745 13.6149 12.7468 13.675 12.6729C13.735 12.599 13.8228 12.4743 13.8966 12.3727C13.9705 12.2711 14.0398 12.188 14.1045 12.091C14.1691 11.9941 14.2291 11.8925 14.2892 11.7909C14.3492 11.6893 14.4139 11.5877 14.4693 11.4815C14.5247 11.3752 14.5709 11.2736 14.6217 11.172C14.6725 11.0705 14.7279 10.955 14.7741 10.8442C14.8203 10.7333 14.8526 10.6364 14.8895 10.5301C14.9265 10.4239 14.9727 10.3039 15.0096 10.1884C15.0465 10.0729 15.0696 9.97135 15.102 9.86514L15.1851 9.51878C15.1851 9.40795 15.2266 9.29712 15.2451 9.18628C15.2636 9.07545 15.2821 8.95538 15.2959 8.83531L15.3236 8.49819C15.3236 8.38274 15.3236 8.26729 15.3236 8.15184L15.3883 7.82396Z" fill="white"/>
<path id="Vector_3" d="M7.99965 7.53907C7.90792 7.53854 7.81812 7.56533 7.74168 7.61604C7.66524 7.66675 7.60563 7.73907 7.57046 7.82378C7.53529 7.9085 7.52614 8.00177 7.54418 8.0917C7.56222 8.18164 7.60664 8.26416 7.67177 8.32876C7.7147 8.37204 7.76577 8.4064 7.82205 8.42984C7.87832 8.45329 7.93868 8.46536 7.99965 8.46536C8.06061 8.46536 8.12097 8.45329 8.17725 8.42984C8.23352 8.4064 8.2846 8.37204 8.32753 8.32876C8.39266 8.26416 8.43708 8.18164 8.45512 8.0917C8.47316 8.00177 8.46401 7.9085 8.42884 7.82378C8.39366 7.73907 8.33406 7.66675 8.25762 7.61604C8.18118 7.56533 8.09137 7.53854 7.99965 7.53907Z" fill="white"/>
<path id="Vector_4" d="M7.9987 2.45898C6.90266 2.45898 5.83124 2.784 4.91992 3.39292C4.00859 4.00185 3.2983 4.86734 2.87887 5.87995C2.45943 6.89255 2.34969 8.0068 2.56352 9.08178C2.77734 10.1568 3.30513 11.1442 4.08015 11.9192C4.85517 12.6942 5.8426 13.222 6.91758 13.4358C7.99255 13.6497 9.1068 13.5399 10.1194 13.1205C11.132 12.701 11.9975 11.9908 12.6064 11.0794C13.2154 10.1681 13.5404 9.09669 13.5404 8.00065C13.5404 6.53091 12.9565 5.12137 11.9173 4.0821C10.878 3.04284 9.46844 2.45898 7.9987 2.45898ZM10.6125 6.0426L9.2271 7.42801C9.32021 7.6053 9.37378 7.80067 9.38412 8.00065C9.38379 8.36796 9.23762 8.72011 8.97773 8.97968C8.71816 9.23957 8.36601 9.38574 7.9987 9.38607C7.79228 9.38484 7.58875 9.33751 7.40297 9.24753L6.01755 10.6329C5.97462 10.6762 5.92355 10.7106 5.86727 10.734C5.811 10.7575 5.75064 10.7695 5.68967 10.7695C5.62871 10.7695 5.56835 10.7575 5.51207 10.734C5.4558 10.7106 5.40472 10.6762 5.36179 10.6329C5.31851 10.59 5.28415 10.5389 5.26071 10.4827C5.23726 10.4264 5.22519 10.366 5.22519 10.3051C5.22519 10.2441 5.23726 10.1837 5.26071 10.1275C5.28415 10.0712 5.31851 10.0201 5.36179 9.97718L6.74721 8.61485C6.65609 8.42309 6.61027 8.21294 6.61328 8.00065C6.61361 7.63334 6.75978 7.28119 7.01967 7.02162C7.22497 6.82561 7.48437 6.69574 7.76431 6.64881C8.04424 6.60188 8.33182 6.64005 8.58981 6.75839L9.97523 5.37298C10.0183 5.32992 10.0694 5.29576 10.1257 5.27246C10.1819 5.24916 10.2422 5.23716 10.3031 5.23716C10.364 5.23716 10.4243 5.24916 10.4806 5.27246C10.5368 5.29576 10.5879 5.32992 10.631 5.37298C10.6741 5.41604 10.7082 5.46715 10.7315 5.52341C10.7548 5.57967 10.7668 5.63997 10.7668 5.70086C10.7668 5.76175 10.7548 5.82205 10.7315 5.87831C10.7082 5.93457 10.6741 5.98568 10.631 6.02874L10.6125 6.0426Z" fill="white"/>
</g>
</svg>
