<svg width="14" height="14" viewBox="0 0 14 14" fill="none" xmlns="http://www.w3.org/2000/svg">
<g id="Group">
<path id="Vector" d="M7 0C3.13895 0 0 3.13895 0 7C0 10.8611 3.13895 14 7 14C10.8611 14 14 10.8611 14 7C14 3.13895 10.8611 0 7 0ZM7.60421 10.4779V11.3621C7.60421 11.4505 7.53053 11.5389 7.42737 11.5389H6.57263C6.48421 11.5389 6.39579 11.4653 6.39579 11.3621V10.5074C5.52632 10.4484 4.81895 9.77053 4.73053 8.90105C4.71579 8.79789 4.80421 8.72421 4.90737 8.72421H5.77684C5.85053 8.72421 5.92421 8.76842 5.93895 8.8421C5.99789 9.10737 6.23368 9.31368 6.51368 9.31368H7.26526C7.70737 9.31368 8.12 8.98947 8.16421 8.54737C8.22316 8.03158 7.81053 7.60421 7.30947 7.60421H6.74947C5.67368 7.60421 4.71579 6.82316 4.61263 5.7621C4.50947 4.62737 5.32 3.66947 6.38105 3.5221V2.65263C6.38105 2.56421 6.45474 2.49053 6.55789 2.49053H7.41263C7.50105 2.49053 7.58947 2.56421 7.58947 2.65263V3.50737C8.45895 3.56632 9.16632 4.24421 9.25474 5.11368C9.26947 5.21684 9.18105 5.29053 9.07789 5.29053H8.20842C8.13474 5.29053 8.06105 5.24632 8.04632 5.15789C7.98737 4.89263 7.75158 4.68632 7.47158 4.68632H6.72C6.27789 4.68632 5.86526 5.01053 5.82105 5.45263C5.7621 5.96842 6.17474 6.39579 6.67579 6.39579H7.32421C8.51789 6.39579 9.49053 7.42737 9.37263 8.65053C9.26947 9.60842 8.51789 10.3158 7.60421 10.4779Z" fill="white"/>
</g>
</svg>
