<svg width="16" height="16" viewBox="0 0 16 16" fill="none" xmlns="http://www.w3.org/2000/svg">
<g id="24_heroicons-solid/wrench-screwdriver">
<g id="Union">
<path fill-rule="evenodd" clip-rule="evenodd" d="M8 4.5C8 2.567 9.567 1 11.5 1C11.8528 1 12.1942 1.05235 12.5165 1.15003C12.6847 1.201 12.8137 1.33653 12.8565 1.50699C12.8992 1.67745 12.8493 1.85783 12.725 1.98209L10.5126 4.19455C10.5537 4.51161 10.6959 4.81721 10.9393 5.06066C11.1828 5.30411 11.4884 5.44632 11.8054 5.48745L14.0179 3.27498C14.1422 3.15072 14.3225 3.10081 14.493 3.14353C14.6635 3.18625 14.799 3.31533 14.85 3.4835C14.9477 3.8058 15 4.14724 15 4.5C15 6.433 13.433 8 11.5 8C11.3997 8 11.3002 7.99577 11.2018 7.98745C10.5236 7.93012 9.95585 8.05442 9.66295 8.41008L4.89551 14.1991C4.4779 14.7062 3.85539 15 3.19846 15C1.98428 15 1 14.0157 1 12.8015C1 12.1446 1.29378 11.5221 1.80088 11.1045L7.58992 6.33705C7.94558 6.04415 8.06988 5.47635 8.01255 4.79819C8.00423 4.69979 8 4.60033 8 4.5ZM2.74482 12.75C2.74482 12.4739 2.96868 12.25 3.24482 12.25H3.24982C3.52596 12.25 3.74982 12.4739 3.74982 12.75V12.755C3.74982 13.0312 3.52596 13.255 3.24982 13.255H3.24482C2.96868 13.255 2.74482 13.0312 2.74482 12.755V12.75Z" fill="white" fill-opacity="0.9"/>
<path d="M6.71731 5.76021L5.25001 4.2929V3.25001C5.25001 3.07438 5.15786 2.91163 5.00726 2.82126L2.50726 1.32126C2.31052 1.20322 2.05869 1.23422 1.89646 1.39646L1.39646 1.89646C1.23422 2.05869 1.20322 2.31052 1.32126 2.50726L2.82126 5.00726C2.91163 5.15786 3.07438 5.25001 3.25001 5.25001H4.2929L5.66758 6.62469L6.71731 5.76021Z" fill="white" fill-opacity="0.9"/>
<path fill-rule="evenodd" clip-rule="evenodd" d="M8.37061 11.5525L11.1591 14.3409C12.0378 15.2196 13.4624 15.2196 14.3411 14.3409C15.2197 13.4623 15.2197 12.0376 14.3411 11.159L12.1373 8.9552C11.9291 8.98471 11.7164 8.99997 11.5001 8.99997C11.3716 8.99997 11.244 8.99455 11.1176 8.98387C10.8548 8.96165 10.6626 8.97975 10.5393 9.01178C10.4702 9.02971 10.4383 9.0475 10.4279 9.05429L8.37061 11.5525ZM10.6465 10.6464C10.8418 10.4512 11.1584 10.4512 11.3536 10.6464L12.6036 11.8964C12.7989 12.0917 12.7989 12.4083 12.6036 12.6036C12.4084 12.7988 12.0918 12.7988 11.8965 12.6036L10.6465 11.3536C10.4512 11.1583 10.4512 10.8417 10.6465 10.6464Z" fill="white" fill-opacity="0.9"/>
</g>
</g>
</svg>
