<svg width="16" height="16" viewBox="0 0 16 16" fill="none" xmlns="http://www.w3.org/2000/svg">
<g id="heroicons-solid/archive-box">
<g id="Union">
<path d="M2.25 2C1.55964 2 1 2.55964 1 3.25V3.75C1 4.44036 1.55964 5 2.25 5H13.75C14.4404 5 15 4.44036 15 3.75V3.25C15 2.55964 14.4404 2 13.75 2H2.25Z" fill="white" fill-opacity="0.9"/>
<path fill-rule="evenodd" clip-rule="evenodd" d="M2.05786 6L2.41771 12.1174C2.47989 13.1746 3.35531 14 4.41426 14H11.5855C12.6445 14 13.5199 13.1746 13.5821 12.1174L13.9419 6H2.05786ZM6.1665 8.5C6.1665 8.22386 6.39036 8 6.6665 8H9.33317C9.60931 8 9.83317 8.22386 9.83317 8.5C9.83317 8.77614 9.60931 9 9.33317 9H6.6665C6.39036 9 6.1665 8.77614 6.1665 8.5Z" fill="white" fill-opacity="0.9"/>
</g>
</g>
</svg>
