<svg width="16" height="17" viewBox="0 0 16 17" fill="none" xmlns="http://www.w3.org/2000/svg">
<path fill-rule="evenodd" clip-rule="evenodd" d="M7.386 2C6.77495 2 6.25346 2.44177 6.153 3.0445L6.03389 3.75915C6.02046 3.83976 5.95768 3.9332 5.83614 3.99164C5.60677 4.10195 5.38718 4.2292 5.179 4.37174C5.06801 4.44773 4.95579 4.45547 4.87919 4.42677L4.19974 4.17222C3.62753 3.95785 2.9842 4.18859 2.67868 4.71777L2.06402 5.78239C1.7585 6.31157 1.88033 6.98408 2.35209 7.37244L2.91244 7.83374C2.97552 7.88567 3.02493 7.98655 3.01486 8.12048C3.00544 8.24584 3.00065 8.37241 3.00065 8.5C3.00065 8.62764 3.00544 8.75425 3.01487 8.87966C3.02494 9.0136 2.97554 9.11448 2.91245 9.16641L2.35209 9.62772C1.88033 10.0161 1.7585 10.6886 2.06402 11.2178L2.67868 12.2824C2.9842 12.8116 3.62753 13.0423 4.19974 12.8279L4.87934 12.5733C4.95594 12.5446 5.06815 12.5524 5.17914 12.6284C5.38728 12.7709 5.60682 12.8981 5.83614 13.0084C5.95768 13.0668 6.02046 13.1602 6.0339 13.2408L6.153 13.9555C6.25346 14.5582 6.77495 15 7.386 15H8.61531C9.22635 15 9.74784 14.5582 9.8483 13.9555L9.96741 13.2408C9.98084 13.1602 10.0436 13.0668 10.1652 13.0084C10.3945 12.8981 10.6141 12.7708 10.8223 12.6283C10.9333 12.5523 11.0455 12.5445 11.1221 12.5732L11.8016 12.8278C12.3738 13.0421 13.0171 12.8114 13.3226 12.2822L13.9373 11.2176C14.2428 10.6884 14.121 10.0159 13.6492 9.62756L13.0889 9.16626C13.0258 9.11433 12.9764 9.01345 12.9864 8.87952C12.9959 8.75416 13.0007 8.62759 13.0007 8.5C13.0007 8.37236 12.9959 8.24575 12.9864 8.12034C12.9764 7.9864 13.0258 7.88552 13.0888 7.83359L13.6492 7.37228C14.121 6.98391 14.2428 6.31141 13.9373 5.78223L13.3226 4.71761C13.0171 4.18843 12.3738 3.95769 11.8016 4.17206L11.122 4.42666C11.0454 4.45536 10.9332 4.44763 10.8222 4.37164C10.614 4.22914 10.3945 4.10192 10.1652 3.99164C10.0436 3.9332 9.98084 3.83976 9.96741 3.75915L9.8483 3.0445C9.74784 2.44177 9.22635 2 8.6153 2H7.386ZM8.00073 11C9.38144 11 10.5007 9.88071 10.5007 8.5C10.5007 7.11929 9.38144 6 8.00073 6C6.62002 6 5.50073 7.11929 5.50073 8.5C5.50073 9.88071 6.62002 11 8.00073 11Z" fill="#546575"/>
</svg>
