<svg width="16" height="17" viewBox="0 0 16 17" fill="none" xmlns="http://www.w3.org/2000/svg">
<path d="M12.3996 2.09998C11.7369 2.09998 11.1996 2.63723 11.1996 3.29998V13.7C11.1996 14.3627 11.7369 14.9 12.3996 14.9H13.1996C13.8624 14.9 14.3996 14.3627 14.3996 13.7V3.29998C14.3996 2.63723 13.8624 2.09998 13.1996 2.09998H12.3996Z" fill="#546575"/>
<path d="M7.59961 5.29998C6.93687 5.29998 6.39961 5.83723 6.39961 6.49998V13.7C6.39961 14.3627 6.93687 14.9 7.59961 14.9H8.39961C9.06235 14.9 9.59961 14.3627 9.59961 13.7V6.49998C9.59961 5.83723 9.06235 5.29998 8.39961 5.29998H7.59961Z" fill="#546575"/>
<path d="M2.79961 8.49998C2.13687 8.49998 1.59961 9.03723 1.59961 9.69998V13.7C1.59961 14.3627 2.13687 14.9 2.79961 14.9H3.59961C4.26235 14.9 4.79961 14.3627 4.79961 13.7V9.69998C4.79961 9.03723 4.26235 8.49998 3.59961 8.49998H2.79961Z" fill="#546575"/>
</svg>
