<svg width="16" height="17" viewBox="0 0 16 17" fill="none" xmlns="http://www.w3.org/2000/svg">
<path d="M2.99388 12.573C2.11178 11.4976 1.60001 10.1664 1.53457 8.777V8.75391C1.53457 8.58458 1.53457 8.4091 1.53457 8.22745C1.53675 8.19825 1.53675 8.16892 1.53457 8.13971C1.53457 7.97808 1.53457 7.82106 1.58076 7.6779C1.58076 7.63172 1.58076 7.58554 1.58076 7.53474C1.60385 7.39158 1.62694 7.25304 1.65926 7.10988L1.70082 6.92978C1.73315 6.80047 1.7701 6.67117 1.80704 6.54186L1.88093 6.33405C1.92249 6.21398 1.96867 6.09853 2.01485 5.98308L2.12107 5.75218C2.17187 5.64596 2.21805 5.53974 2.27808 5.43815C2.33812 5.33655 2.37044 5.28113 2.41662 5.20263C2.4628 5.12412 2.53207 5.00405 2.59211 4.91169L2.76298 4.68079C2.82763 4.58843 2.8969 4.49606 2.97079 4.4037C3.01697 4.34829 3.06777 4.29749 3.11857 4.24207C3.16937 4.18665 3.29405 4.03888 3.39103 3.9419C3.5459 3.77939 3.7093 3.62523 3.88055 3.48009C4.04218 3.35079 4.20381 3.23072 4.37468 3.11988L4.48551 3.05061C4.62405 2.96287 4.7626 2.87975 4.90576 2.80586C4.96117 2.77353 5.02121 2.74582 5.08124 2.71811C5.14128 2.6904 5.326 2.59804 5.4553 2.54725L5.68159 2.4595C5.79242 2.41794 5.90326 2.37638 6.01871 2.34405C6.10962 2.31302 6.20211 2.28681 6.29579 2.26554C6.39431 2.23784 6.49129 2.21475 6.58673 2.19627C6.69294 2.19627 6.80378 2.15009 6.91461 2.13624L7.15475 2.09929L7.59346 2.03464H7.76895C7.92135 2.03464 8.06912 2.03464 8.23076 2.03464H8.33697C8.50938 2.03464 8.68025 2.0485 8.84958 2.0762H8.87728C10.0621 2.23042 11.1811 2.70997 12.1099 3.46162H12.1515C12.2394 3.5233 12.346 3.55243 12.453 3.54401C12.5601 3.53558 12.6608 3.49012 12.738 3.41544C12.8226 3.32911 12.87 3.21305 12.87 3.09218C12.87 2.9713 12.8226 2.85524 12.738 2.76891H12.7149C12.6364 2.69964 12.5533 2.64422 12.4701 2.58419C12.387 2.52415 12.2485 2.41332 12.1376 2.33481L11.8698 2.17318C11.7543 2.10391 11.6435 2.03464 11.5234 1.96999C11.4034 1.90534 11.3387 1.87763 11.2463 1.83145C11.154 1.78527 11.0108 1.716 10.8861 1.6652L10.5767 1.57284L10.198 1.43891L9.91635 1.36041C9.78704 1.32808 9.65312 1.29113 9.51919 1.26343L9.24211 1.21263C9.10819 1.18954 8.96964 1.17106 8.8311 1.15721C8.69256 1.14336 8.651 1.15721 8.55864 1.1295C8.46628 1.10179 8.27694 1.1295 8.13378 1.1295C8.0461 1.12489 7.95823 1.12489 7.87055 1.1295C7.72739 1.1295 7.57961 1.1295 7.43183 1.1295H7.18246C7.03468 1.1295 6.8869 1.16645 6.72065 1.19416L6.48513 1.23572L6.02333 1.34655L5.81089 1.40659L5.34909 1.56822L5.15513 1.64211C4.9935 1.71138 4.83649 1.78527 4.69333 1.86377L4.53169 1.94228C4.36083 2.03464 4.19458 2.13162 4.03294 2.23784L3.91749 2.30711C3.72353 2.43641 3.53881 2.57034 3.35409 2.71811H3.331C3.13753 2.87601 2.95255 3.04404 2.77683 3.22148C2.67062 3.32308 2.58287 3.43391 2.48589 3.54013L2.28732 3.75718C2.20881 3.85415 2.13954 3.95575 2.06565 4.05273C1.99176 4.14971 1.92249 4.24207 1.85784 4.33905C1.79319 4.43603 1.73777 4.53763 1.67312 4.63922C1.60846 4.74082 1.54843 4.84242 1.49301 4.94863C1.4376 5.05485 1.39141 5.15645 1.34062 5.25804C1.28982 5.35964 1.2344 5.47509 1.18822 5.58593C1.14204 5.69676 1.10971 5.79374 1.07277 5.89995C1.03582 6.00617 0.989644 6.12624 0.9527 6.24169C0.915755 6.35714 0.892665 6.45874 0.860339 6.56495L0.777214 6.91131C0.777214 7.02214 0.735651 7.13297 0.717179 7.24381C0.698707 7.35464 0.680234 7.47471 0.66638 7.59478L0.638672 7.9319C0.638672 8.04735 0.638672 8.1628 0.638672 8.27825V8.61999C0.638672 8.73544 0.638672 8.85089 0.638672 8.96634C0.638672 9.08179 0.638672 9.19724 0.670998 9.3127C0.703325 9.42815 0.698707 9.53898 0.717179 9.64981C0.735651 9.76065 0.758741 9.88072 0.781832 9.99155C0.804922 10.1024 0.83263 10.2132 0.864957 10.3241C0.897283 10.4349 0.920373 10.5503 0.957318 10.6658C0.994262 10.7812 1.03121 10.8782 1.06815 10.9844C1.1051 11.0906 1.15128 11.2107 1.19746 11.3216L1.34062 11.631C1.39141 11.7372 1.44221 11.848 1.49763 11.9542C1.55305 12.0604 1.6177 12.1574 1.67773 12.259C1.73777 12.3606 1.7978 12.4622 1.86707 12.5592C1.93635 12.6562 2.01485 12.7624 2.08874 12.864C2.16263 12.9656 2.22267 13.0487 2.29655 13.1364V13.1595C2.38267 13.2428 2.49775 13.2893 2.61751 13.2893C2.73727 13.2893 2.85235 13.2428 2.93846 13.1595C3.01128 13.0821 3.05518 12.982 3.06275 12.876C3.07033 12.77 3.04111 12.6646 2.98003 12.5777C2.98003 12.5777 3.00773 12.5869 2.99388 12.573Z" fill="#546575"/>
<path d="M15.3883 8.32347C15.3883 8.20802 15.3883 8.09257 15.3883 7.97711C15.3883 7.86166 15.3883 7.74621 15.356 7.63076C15.3236 7.51531 15.3282 7.40909 15.3098 7.29364C15.2913 7.17819 15.2682 7.06274 15.2451 6.95191C15.222 6.84107 15.1943 6.73024 15.162 6.61941C15.1297 6.50857 15.1066 6.39312 15.0696 6.27767C15.0327 6.16222 14.9957 6.06524 14.9588 5.95902C14.9219 5.85281 14.8757 5.73274 14.8295 5.62191L14.6863 5.3125C14.6355 5.20628 14.5847 5.09545 14.5293 4.98923C14.4739 4.88302 14.4093 4.78604 14.3492 4.68906C14.2892 4.59208 14.2291 4.48125 14.1599 4.38427C14.0906 4.28729 14.0167 4.18107 13.9382 4.07947C13.8597 3.97788 13.8043 3.89475 13.7304 3.80701C13.6443 3.72377 13.5292 3.67725 13.4094 3.67725C13.2897 3.67725 13.1746 3.72377 13.0885 3.80701C13.0157 3.88441 12.9718 3.98455 12.9642 4.09055C12.9566 4.19655 12.9858 4.30192 13.0469 4.38888C13.0469 4.38888 13.0469 4.41659 13.07 4.43045C13.927 5.51158 14.4157 6.83851 14.4647 8.21725V8.24034C14.4647 8.41583 14.4647 8.59132 14.4647 8.7668C14.4625 8.79601 14.4625 8.82534 14.4647 8.85455C14.4647 9.01618 14.4416 9.17319 14.4185 9.31635C14.4185 9.36253 14.4185 9.41333 14.4185 9.45951C14.3954 9.60267 14.3723 9.74121 14.34 9.88437L14.2984 10.0645C14.2661 10.1938 14.2291 10.3231 14.1922 10.4524C14.1553 10.5817 14.1414 10.5909 14.1183 10.6648C14.0952 10.7387 14.0306 10.8957 13.9844 11.0112C13.9382 11.1266 13.9151 11.1636 13.8782 11.2421C13.8412 11.3206 13.7812 11.4545 13.7212 11.5561C13.6611 11.6577 13.6288 11.7177 13.5826 11.7962C13.5364 11.8748 13.4672 11.9902 13.4071 12.0826L13.2363 12.3135C13.1716 12.4058 13.1023 12.4982 13.0285 12.5906L12.8807 12.7568C12.7929 12.8584 12.7052 12.96 12.6082 13.0524C12.4533 13.2149 12.2899 13.369 12.1187 13.5142C11.9625 13.6434 11.7991 13.7637 11.6292 13.8744L11.5183 13.9436C11.3798 14.0314 11.2413 14.1145 11.0981 14.1884L10.9226 14.2761C10.8025 14.3362 10.6779 14.3962 10.5486 14.4516L10.3223 14.5348C10.2114 14.5763 10.1006 14.6179 9.98515 14.6502C9.89424 14.6812 9.80175 14.7074 9.70807 14.7287L9.41713 14.8026L9.08925 14.8626L8.84911 14.895L8.46119 14.9319H8.23029C8.0779 14.9319 7.93012 14.9319 7.76849 14.9319H7.66227C7.4914 14.9319 7.32054 14.9319 7.14967 14.8903H7.12196C5.94519 14.732 4.83474 14.2527 3.91241 13.5049C3.89967 13.4941 3.88572 13.4848 3.87085 13.4772C3.78296 13.4155 3.67633 13.3864 3.5693 13.3948C3.46226 13.4033 3.3615 13.4487 3.28435 13.5234C3.19974 13.6097 3.15234 13.7258 3.15234 13.8467C3.15234 13.9675 3.19974 14.0836 3.28435 14.1699C3.36286 14.2392 3.44599 14.2946 3.52449 14.3547C3.603 14.4147 3.74616 14.5255 3.86161 14.604L4.12946 14.7657C4.24491 14.8349 4.35574 14.9088 4.47581 14.9689C4.59588 15.0289 4.66054 15.0612 4.7529 15.1074C4.84526 15.1536 4.98842 15.2228 5.1131 15.2736L5.39481 15.3799L5.77349 15.5138L6.05519 15.5923C6.18449 15.6246 6.31842 15.6616 6.45234 15.6893L6.72942 15.7401L7.14043 15.8001H7.4129C7.55144 15.8001 7.6946 15.8001 7.83776 15.8001H8.10099C8.24415 15.8001 8.39192 15.8001 8.5397 15.8001H8.78446C8.93686 15.8001 9.08925 15.7632 9.24626 15.7354L9.47717 15.6939C9.63418 15.6616 9.78658 15.6246 9.93897 15.5831L10.1514 15.523C10.3084 15.4768 10.4654 15.4168 10.6132 15.3614L10.8072 15.2875C10.9688 15.2228 11.1258 15.1443 11.269 15.0658L11.4306 14.9873C11.602 14.8977 11.7685 14.7991 11.9294 14.6918C11.9663 14.6687 12.0079 14.6502 12.0448 14.6225C12.2388 14.4932 12.4281 14.3593 12.6082 14.2115H12.6313C12.8248 14.0536 13.0098 13.8856 13.1855 13.7081C13.2917 13.6065 13.384 13.4957 13.481 13.3849C13.578 13.274 13.6149 13.2463 13.675 13.1724C13.735 13.0985 13.8228 12.9739 13.8966 12.8723C13.9705 12.7707 14.0398 12.6875 14.1045 12.5906C14.1691 12.4936 14.2291 12.392 14.2892 12.2904C14.3492 12.1888 14.4139 12.0872 14.4693 11.981C14.5247 11.8748 14.5709 11.7732 14.6217 11.6716C14.6725 11.57 14.7279 11.4545 14.7741 11.3437C14.8203 11.2328 14.8526 11.1359 14.8895 11.0296C14.9265 10.9234 14.9727 10.8034 15.0096 10.6879C15.0465 10.5725 15.0696 10.4709 15.102 10.3646L15.1851 10.0183C15.1851 9.90746 15.2266 9.79663 15.2451 9.68579C15.2636 9.57496 15.2821 9.45489 15.2959 9.33482L15.3236 8.9977C15.3236 8.88225 15.3236 8.7668 15.3236 8.65135L15.3883 8.32347Z" fill="#546575"/>
<path d="M7.99965 8.03834C7.90792 8.0378 7.81812 8.0646 7.74168 8.11531C7.66524 8.16601 7.60563 8.23833 7.57046 8.32305C7.53529 8.40776 7.52614 8.50104 7.54418 8.59097C7.56222 8.68091 7.60664 8.76343 7.67177 8.82802C7.7147 8.87131 7.76577 8.90567 7.82205 8.92911C7.87832 8.95256 7.93868 8.96463 7.99965 8.96463C8.06061 8.96463 8.12097 8.95256 8.17725 8.92911C8.23352 8.90567 8.2846 8.87131 8.32753 8.82802C8.39266 8.76343 8.43708 8.68091 8.45512 8.59097C8.47316 8.50104 8.46401 8.40776 8.42884 8.32305C8.39366 8.23833 8.33406 8.16601 8.25762 8.11531C8.18118 8.0646 8.09137 8.0378 7.99965 8.03834Z" fill="#546575"/>
<path d="M7.9987 2.95947C6.90266 2.95947 5.83124 3.28449 4.91992 3.89341C4.00859 4.50234 3.2983 5.36783 2.87887 6.38044C2.45943 7.39304 2.34969 8.50729 2.56352 9.58226C2.77734 10.6572 3.30513 11.6447 4.08015 12.4197C4.85517 13.1947 5.8426 13.7225 6.91758 13.9363C7.99255 14.1502 9.1068 14.0404 10.1194 13.621C11.132 13.2015 11.9975 12.4912 12.6064 11.5799C13.2154 10.6686 13.5404 9.59718 13.5404 8.50114C13.5404 7.0314 12.9565 5.62185 11.9173 4.58259C10.878 3.54333 9.46844 2.95947 7.9987 2.95947ZM10.6125 6.54308L9.2271 7.9285C9.32021 8.10579 9.37378 8.30116 9.38412 8.50114C9.38379 8.86845 9.23762 9.2206 8.97773 9.48017C8.71816 9.74006 8.36601 9.88623 7.9987 9.88656C7.79228 9.88533 7.58875 9.838 7.40297 9.74801L6.01755 11.1334C5.97462 11.1767 5.92355 11.2111 5.86727 11.2345C5.811 11.258 5.75064 11.27 5.68967 11.27C5.62871 11.27 5.56835 11.258 5.51207 11.2345C5.4558 11.2111 5.40472 11.1767 5.36179 11.1334C5.31851 11.0905 5.28415 11.0394 5.26071 10.9831C5.23726 10.9269 5.22519 10.8665 5.22519 10.8055C5.22519 10.7446 5.23726 10.6842 5.26071 10.6279C5.28415 10.5717 5.31851 10.5206 5.36179 10.4777L6.74721 9.11534C6.65609 8.92357 6.61027 8.71343 6.61328 8.50114C6.61361 8.13383 6.75978 7.78168 7.01967 7.52211C7.22497 7.3261 7.48437 7.19623 7.76431 7.14929C8.04424 7.10237 8.33182 7.14054 8.58981 7.25888L9.97523 5.87347C10.0183 5.83041 10.0694 5.79625 10.1257 5.77295C10.1819 5.74965 10.2422 5.73765 10.3031 5.73765C10.364 5.73765 10.4243 5.74965 10.4806 5.77295C10.5368 5.79625 10.5879 5.83041 10.631 5.87347C10.6741 5.91652 10.7082 5.96764 10.7315 6.0239C10.7548 6.08016 10.7668 6.14045 10.7668 6.20135C10.7668 6.26224 10.7548 6.32254 10.7315 6.3788C10.7082 6.43505 10.6741 6.48617 10.631 6.52923L10.6125 6.54308Z" fill="#546575"/>
</svg>
