<svg width="16" height="17" viewBox="0 0 16 17" fill="none" xmlns="http://www.w3.org/2000/svg">
<path d="M7.64645 3.06063C7.84171 2.86537 8.15829 2.86537 8.35355 3.06063L14.1464 8.85352C14.3417 9.04879 14.6583 9.04879 14.8536 8.85352C15.0488 8.65826 15.0488 8.34168 14.8536 8.14642L9.06066 2.35352C8.47487 1.76774 7.52513 1.76774 6.93934 2.35352L1.14645 8.14642C0.951184 8.34168 0.951184 8.65826 1.14645 8.85352C1.34171 9.04879 1.65829 9.04879 1.85355 8.85352L7.64645 3.06063Z" fill="#546575"/>
<path d="M8 4.12129L13.4393 9.56063C13.4592 9.58044 13.4794 9.59959 13.5 9.61806V13.75C13.5 14.4403 12.9404 15 12.25 15H10C9.72386 15 9.5 14.7761 9.5 14.5V11.5C9.5 11.2238 9.27614 11 9 11H7C6.72386 11 6.5 11.2238 6.5 11.5V14.5C6.5 14.7761 6.27614 15 6 15H3.75C3.05964 15 2.5 14.4403 2.5 13.75V9.61806C2.52062 9.59959 2.54085 9.58044 2.56066 9.56063L8 4.12129Z" fill="#546575"/>
</svg>
