<svg width="16" height="17" viewBox="0 0 16 17" fill="none" xmlns="http://www.w3.org/2000/svg">
<path d="M8 1C4.96243 1 2.5 3.46243 2.5 6.5C2.5 8.53384 3.60421 10.3092 5.24344 11.2603C5.70041 11.5254 5.98657 11.9323 5.99952 12.3417C6.00666 12.5675 6.16438 12.7605 6.38427 12.8125C6.61852 12.8679 6.85723 12.9114 7.09973 12.9426C7.31546 12.9703 7.50012 12.7975 7.50012 12.58V9.47263C7.28727 9.44908 7.07869 9.41066 6.87549 9.35836C6.60807 9.28953 6.44707 9.01694 6.5159 8.74952C6.58473 8.48209 6.85732 8.3211 7.12475 8.38993C7.40396 8.46179 7.69717 8.50012 8.00012 8.50012C8.30307 8.50012 8.59628 8.46179 8.87549 8.38993C9.14292 8.3211 9.41551 8.48209 9.48434 8.74952C9.55317 9.01694 9.39218 9.28953 9.12475 9.35836C8.92156 9.41066 8.71297 9.44908 8.50012 9.47263V12.58C8.50012 12.7975 8.68479 12.9703 8.90053 12.9426C9.14293 12.9114 9.38156 12.8678 9.61573 12.8125C9.83563 12.7605 9.99334 12.5675 10.0005 12.3417C10.0134 11.9323 10.2996 11.5254 10.7566 11.2603C12.3958 10.3092 13.5 8.53384 13.5 6.5C13.5 3.46243 11.0376 1 8 1Z" fill="#546575"/>
<path fill-rule="evenodd" clip-rule="evenodd" d="M6.00876 13.7664C6.06022 13.4951 6.32188 13.3169 6.59318 13.3684C7.0485 13.4548 7.51873 13.5 8 13.5C8.48127 13.5 8.95151 13.4548 9.40682 13.3684C9.67812 13.3169 9.93978 13.4951 9.99124 13.7664C10.0427 14.0377 9.86449 14.2994 9.59319 14.3509C9.07675 14.4488 8.54412 14.5 8 14.5C7.45588 14.5 6.92326 14.4488 6.40682 14.3509C6.13551 14.2994 5.9573 14.0377 6.00876 13.7664Z" fill="#546575"/>
<path fill-rule="evenodd" clip-rule="evenodd" d="M6.50271 15.396C6.53144 15.1213 6.77738 14.922 7.05202 14.9507C7.36341 14.9833 7.67967 15 8 15C8.32033 15 8.63659 14.9833 8.94798 14.9507C9.22262 14.922 9.46856 15.1213 9.49729 15.396C9.52602 15.6706 9.32667 15.9166 9.05202 15.9453C8.70613 15.9815 8.35515 16 8 16C7.64485 16 7.29387 15.9815 6.94798 15.9453C6.67333 15.9166 6.47398 15.6706 6.50271 15.396Z" fill="#546575"/>
</svg>
