<svg width="14" height="15" viewBox="0 0 14 15" fill="none" xmlns="http://www.w3.org/2000/svg">
<path d="M7 0.5C3.13895 0.5 0 3.63895 0 7.5C0 11.3611 3.13895 14.5 7 14.5C10.8611 14.5 14 11.3611 14 7.5C14 3.63895 10.8611 0.5 7 0.5ZM7.60421 10.9779V11.8621C7.60421 11.9505 7.53053 12.0389 7.42737 12.0389H6.57263C6.48421 12.0389 6.39579 11.9653 6.39579 11.8621V11.0074C5.52632 10.9484 4.81895 10.2705 4.73053 9.40105C4.71579 9.29789 4.80421 9.22421 4.90737 9.22421H5.77684C5.85053 9.22421 5.92421 9.26842 5.93895 9.3421C5.99789 9.60737 6.23368 9.81368 6.51368 9.81368H7.26526C7.70737 9.81368 8.12 9.48947 8.16421 9.04737C8.22316 8.53158 7.81053 8.10421 7.30947 8.10421H6.74947C5.67368 8.10421 4.71579 7.32316 4.61263 6.2621C4.50947 5.12737 5.32 4.16947 6.38105 4.0221V3.15263C6.38105 3.06421 6.45474 2.99053 6.55789 2.99053H7.41263C7.50105 2.99053 7.58947 3.06421 7.58947 3.15263V4.00737C8.45895 4.06632 9.16632 4.74421 9.25474 5.61368C9.26947 5.71684 9.18105 5.79053 9.07789 5.79053H8.20842C8.13474 5.79053 8.06105 5.74632 8.04632 5.65789C7.98737 5.39263 7.75158 5.18632 7.47158 5.18632H6.72C6.27789 5.18632 5.86526 5.51053 5.82105 5.95263C5.7621 6.46842 6.17474 6.89579 6.67579 6.89579H7.32421C8.51789 6.89579 9.49053 7.92737 9.37263 9.15053C9.26947 10.1084 8.51789 10.8158 7.60421 10.9779Z" fill="#546575"/>
</svg>
