<svg width="16" height="17" viewBox="0 0 16 17" fill="none" xmlns="http://www.w3.org/2000/svg">
<path fill-rule="evenodd" clip-rule="evenodd" d="M8 5C8 3.067 9.567 1.5 11.5 1.5C11.8528 1.5 12.1942 1.55235 12.5165 1.65003C12.6847 1.701 12.8137 1.83653 12.8565 2.00699C12.8992 2.17745 12.8493 2.35783 12.725 2.48209L10.5126 4.69455C10.5537 5.01161 10.6959 5.31721 10.9393 5.56066C11.1828 5.80411 11.4884 5.94632 11.8054 5.98745L14.0179 3.77498C14.1422 3.65072 14.3225 3.60081 14.493 3.64353C14.6635 3.68625 14.799 3.81533 14.85 3.9835C14.9477 4.3058 15 4.64724 15 5C15 6.933 13.433 8.5 11.5 8.5C11.3997 8.5 11.3002 8.49577 11.2018 8.48745C10.5236 8.43012 9.95585 8.55442 9.66295 8.91008L4.89551 14.6991C4.4779 15.2062 3.85539 15.5 3.19846 15.5C1.98428 15.5 1 14.5157 1 13.3015C1 12.6446 1.29378 12.0221 1.80088 11.6045L7.58992 6.83705C7.94558 6.54415 8.06988 5.97635 8.01255 5.29819C8.00423 5.19979 8 5.10033 8 5ZM2.74482 13.25C2.74482 12.9739 2.96868 12.75 3.24482 12.75H3.24982C3.52596 12.75 3.74982 12.9739 3.74982 13.25V13.255C3.74982 13.5312 3.52596 13.755 3.24982 13.755H3.24482C2.96868 13.755 2.74482 13.5312 2.74482 13.255V13.25Z" fill="#546575"/>
<path d="M6.71731 6.26021L5.25001 4.7929V3.75001C5.25001 3.57438 5.15786 3.41163 5.00726 3.32126L2.50726 1.82126C2.31052 1.70322 2.05869 1.73422 1.89646 1.89646L1.39646 2.39646C1.23422 2.55869 1.20322 2.81052 1.32126 3.00726L2.82126 5.50726C2.91163 5.65786 3.07438 5.75001 3.25001 5.75001H4.2929L5.66758 7.12469L6.71731 6.26021Z" fill="#546575"/>
<path fill-rule="evenodd" clip-rule="evenodd" d="M8.37061 12.0525L11.1591 14.8409C12.0378 15.7196 13.4624 15.7196 14.3411 14.8409C15.2197 13.9623 15.2197 12.5376 14.3411 11.659L12.1373 9.4552C11.9291 9.48471 11.7164 9.49997 11.5001 9.49997C11.3716 9.49997 11.244 9.49455 11.1176 9.48387C10.8548 9.46165 10.6626 9.47975 10.5393 9.51178C10.4702 9.52971 10.4383 9.5475 10.4279 9.55429L8.37061 12.0525ZM10.6465 11.1464C10.8418 10.9512 11.1584 10.9512 11.3536 11.1464L12.6036 12.3964C12.7989 12.5917 12.7989 12.9083 12.6036 13.1036C12.4084 13.2988 12.0918 13.2988 11.8965 13.1036L10.6465 11.8536C10.4512 11.6583 10.4512 11.3417 10.6465 11.1464Z" fill="#546575"/>
</svg>
