<svg width="16" height="17" viewBox="0 0 16 17" fill="none" xmlns="http://www.w3.org/2000/svg">
<path d="M2.25 2.5C1.55964 2.5 1 3.05964 1 3.75V4.25C1 4.94036 1.55964 5.5 2.25 5.5H13.75C14.4404 5.5 15 4.94036 15 4.25V3.75C15 3.05964 14.4404 2.5 13.75 2.5H2.25Z" fill="#546575"/>
<path fill-rule="evenodd" clip-rule="evenodd" d="M2.05786 6.5L2.41771 12.6174C2.47989 13.6746 3.35531 14.5 4.41426 14.5H11.5855C12.6445 14.5 13.5199 13.6746 13.5821 12.6174L13.9419 6.5H2.05786ZM6.1665 9C6.1665 8.72386 6.39036 8.5 6.6665 8.5H9.33317C9.60931 8.5 9.83317 8.72386 9.83317 9C9.83317 9.27614 9.60931 9.5 9.33317 9.5H6.6665C6.39036 9.5 6.1665 9.27614 6.1665 9Z" fill="#546575"/>
</svg>
