<svg width="14" height="14" viewBox="0 0 14 14" fill="none" xmlns="http://www.w3.org/2000/svg">
<path d="M6.64645 1.56051C6.84171 1.36525 7.15829 1.36525 7.35355 1.56051L13.1464 7.3534C13.3417 7.54866 13.6583 7.54866 13.8536 7.3534C14.0488 7.15814 14.0488 6.84156 13.8536 6.6463L8.06066 0.853402C7.47487 0.267615 6.52513 0.267617 5.93934 0.853403L0.146447 6.6463C-0.0488155 6.84156 -0.0488155 7.15814 0.146447 7.3534C0.341709 7.54866 0.658291 7.54866 0.853553 7.3534L6.64645 1.56051Z" fill="white" fill-opacity="0.9"/>
<path d="M7 2.62117L12.4393 8.06051C12.4592 8.08032 12.4794 8.09947 12.5 8.11794V12.2498C12.5 12.9402 11.9404 13.4998 11.25 13.4998H9C8.72386 13.4998 8.5 13.276 8.5 12.9998V9.99985C8.5 9.72371 8.27614 9.49985 8 9.49985H6C5.72386 9.49985 5.5 9.72371 5.5 9.99985V12.9998C5.5 13.276 5.27614 13.4998 5 13.4998H2.75C2.05964 13.4998 1.5 12.9402 1.5 12.2498V8.11794C1.52062 8.09947 1.54085 8.08032 1.56066 8.06051L7 2.62117Z" fill="white" fill-opacity="0.9"/>
</svg>
