<svg width="14" height="14" viewBox="0 0 14 14" fill="none" xmlns="http://www.w3.org/2000/svg">
<path fill-rule="evenodd" clip-rule="evenodd" d="M7 3.5C7 1.567 8.567 0 10.5 0C10.8528 0 11.1942 0.0523451 11.5165 0.150031C11.6847 0.201005 11.8137 0.336526 11.8565 0.506989C11.8992 0.677451 11.8493 0.857826 11.725 0.982089L9.51255 3.19455C9.55368 3.51161 9.69589 3.81721 9.93934 4.06066C10.1828 4.30411 10.4884 4.44632 10.8054 4.48745L13.0179 2.27498C13.1422 2.15072 13.3225 2.10081 13.493 2.14353C13.6635 2.18625 13.799 2.31533 13.85 2.4835C13.9477 2.8058 14 3.14724 14 3.5C14 5.433 12.433 7 10.5 7C10.3997 7 10.3002 6.99577 10.2018 6.98745C9.52365 6.93012 8.95585 7.05442 8.66295 7.41008L3.89551 13.1991C3.4779 13.7062 2.85539 14 2.19846 14C0.984283 14 0 13.0157 0 11.8015C0 11.1446 0.293777 10.5221 0.800882 10.1045L6.58992 5.33705C6.94558 5.04415 7.06988 4.47635 7.01255 3.79819C7.00423 3.69979 7 3.60033 7 3.5ZM1.74482 11.75C1.74482 11.4739 1.96868 11.25 2.24482 11.25H2.24982C2.52596 11.25 2.74982 11.4739 2.74982 11.75V11.755C2.74982 12.0312 2.52596 12.255 2.24982 12.255H2.24482C1.96868 12.255 1.74482 12.0312 1.74482 11.755V11.75Z" fill="white" fill-opacity="0.9"/>
<path d="M5.71731 4.76021L4.25001 3.2929V2.25001C4.25001 2.07438 4.15786 1.91163 4.00726 1.82126L1.50726 0.321264C1.31052 0.203222 1.05869 0.234223 0.896458 0.396458L0.396458 0.896458C0.234223 1.05869 0.203222 1.31052 0.321264 1.50726L1.82126 4.00726C1.91163 4.15786 2.07438 4.25001 2.25001 4.25001H3.2929L4.66758 5.62469L5.71731 4.76021Z" fill="white" fill-opacity="0.9"/>
<path fill-rule="evenodd" clip-rule="evenodd" d="M7.37061 10.5525L10.1591 13.3409C11.0378 14.2196 12.4624 14.2196 13.3411 13.3409C14.2197 12.4623 14.2197 11.0376 13.3411 10.159L11.1373 7.9552C10.9291 7.98471 10.7164 7.99997 10.5001 7.99997C10.3716 7.99997 10.244 7.99455 10.1176 7.98387C9.85477 7.96165 9.66264 7.97975 9.53926 8.01178C9.4702 8.02971 9.43829 8.0475 9.42793 8.05429L7.37061 10.5525ZM9.64651 9.64645C9.84177 9.45118 10.1584 9.45118 10.3536 9.64645L11.6036 10.8964C11.7989 11.0917 11.7989 11.4083 11.6036 11.6036C11.4084 11.7988 11.0918 11.7988 10.8965 11.6036L9.64651 10.3536C9.45125 10.1583 9.45125 9.84171 9.64651 9.64645Z" fill="white" fill-opacity="0.9"/>
</svg>
